<svg id="Layer_1" data-name="Layer 1" xmlns="http://www.w3.org/2000/svg" viewBox="0 0 49.307 52.022"><defs><style>.cls-1{fill:#cc7a3e;}.cls-2{fill:#e89a57;}</style></defs><path class="cls-1" d="M313.575,249.562c.392.3.283.728.284,1.117q.017,15.064.018,30.129c0,.344.123.739-.246,1l-18.523-21.5c-.894-1.037-1.781-2.081-2.68-3.113-.33-.378-.6-.619.171-.866C299.6,254.1,306.585,251.823,313.575,249.562Z" transform="translate(-289.234 -229.989)"/><path class="cls-1" d="M313.86,246.861l-24.616,8.028c0-2.945.01-5.719-.01-8.493a.941.941,0,0,1,.53-.862c3-1.949,6-3.9,9.164-5.96,0,1.851.021,3.564-.01,5.276-.013.7.143,1.014.869.641a1.09,1.09,0,0,1,.115-.034c1.4-.493,3.341-.6,4.057-1.589s.411-2.894.193-4.344c-.389-2.6.6-4.132,2.9-5.293,2.387-1.2,4.443-3,6.835-4.242Q313.873,238.425,313.86,246.861Z" transform="translate(-289.234 -229.989)"/><path class="cls-2" d="M313.575,249.562c.4-.4.77-.013,1.105.095,6.742,2.175,13.47,4.389,20.215,6.552.923.3.89.533.31,1.2q-10.312,11.948-20.6,23.917c-.2.233-.3,1.056-.974.478.369-.262.246-.657.246-1q0-15.065-.018-30.129C313.858,250.29,313.967,249.858,313.575,249.562Z" transform="translate(-289.234 -229.989)"/><path class="cls-2" d="M313.86,246.861q.012-8.436.025-16.872a42.209,42.209,0,0,1,4.894,3.036c1.374.841,2.688,1.781,4.06,2.624a1.357,1.357,0,0,1,.74,1.355c-.047,2.015.023,4.033-.036,6.048a1.079,1.079,0,0,0,.928,1.253c1.195.353,2.376.765,3.543,1.2.641.242.842.115.827-.583-.036-1.717-.012-3.435-.012-5.362,3.233,2.112,6.286,4.114,9.351,6.1.442.287.333.694.334,1.08.007,2.379-.041,4.76.026,7.138.027.962-.281.929-1.028.684Q325.7,250.688,313.86,246.861Z" transform="translate(-289.234 -229.989)"/></svg>