<?xml version="1.0" encoding="utf-8"?>
<!-- Generator: Adobe Illustrator 27.2.0, SVG Export Plug-In . SVG Version: 6.00 Build 0)  -->
<svg version="1.1" id="Layer_1" xmlns="http://www.w3.org/2000/svg" xmlns:xlink="http://www.w3.org/1999/xlink" x="0px" y="0px"
	 viewBox="0 0 202.3 72.5" style="enable-background:new 0 0 202.3 72.5;" xml:space="preserve">
<style type="text/css">
	.st0{fill:#C49850;}
	.st1{fill:#FFFFFF;}
</style>
<polygon class="st0" points="171,4.1 138.1,9.1 138.1,5 171,0 "/>
<polygon class="st0" points="114.2,64.9 81.3,69.9 81.3,65.8 114.2,60.8 "/>
<path class="st1" d="M45.9,58.1l7,5.7L48,71l-6.8-5.6L37.3,71l-7.1-5.7l4.9-7.2l6.9,5.5L45.9,58.1L45.9,58.1z M195.6,53.2
	c0,0-6.3-4-13.7-8.7l-3.4,3.8h-52.8l0,0H77.1h-1.5l-2.6-2.7c-1.1,1.2-2.4,2.7-2.4,2.7H58.6l0,0H45l-3.2,4.3l-2.1-7.7l-2,3.4H19.2
	L17,44.1c0,1.2-0.1,3.3-0.2,4.2c-0.2,2.7-1.1,5.4-2.4,8.2s-2.9,5.3-4.9,7.7c-1.9,2.4-4.1,4.5-6.5,6.3c-1,0.8-2,1.4-3,2.1L0,64.9
	c3-1.1,5.4-2.8,7.1-4.9c1.7-2.2,2.6-4.7,2.6-7.7c0-1.1-0.1-2.3-0.3-3.6c-0.2-1.3-0.4-2.6-0.8-3.8c-0.3-1.3-0.7-2.6-1.2-3.8
	S0.5,26.6,0,25.5l7.2-9.2c0.1-0.1,7.7,16,8.1,17.7c0.4,1.6,0.8,3.3,1.2,5c0.3,1.7,0.5,3.2,0.5,4.3h21.9l-5.1-13.6l7.5-8.6l6.9,22.2
	H60l7.5-8.2l1.9,8.5c2.7-3,13.2-14.6,17-19.2c0.6-0.7,1.2-1.4,1.8-2c0.5-0.5,0.9-0.9,1.4-1.3c0.2-0.2,0.4-0.3,0.6-0.5
	c0.3-0.3,0.7-0.5,1.1-0.8c0.2-0.1,0.3-0.2,0.5-0.4c0.5-0.3,1.1-0.6,1.6-0.9c2.4-1.2,4.8-1.8,7.2-1.8c1.9,0,3.9,0.3,5.9,0.9
	s3.9,1.5,5.8,2.5c1.9,1,3.6,2.3,5.2,3.6c1.6,1.4,3,2.8,4.2,4.2c1.2,1.5,2.1,2.9,2.8,4.4c0.7,1.5,1,2.9,1,4.1c0,1.2-0.2,2.4-0.8,3.5
	c-0.5,1.2-1.1,2.2-1.6,3.1h56.8c-9.3-5.9-19.5-12.2-20.5-12.7c-1.9-0.9-3.9-1.6-5.8-2.1s-3.8-0.8-5.6-0.8c-2.2,0-3.9,0.3-5,0.9
	c-1.1,0.6-3.7,4.2-3.7,4.2l-3.7-2.3c0,0,0.5-0.8,2.1-3c1.6-2.3,3.2-4.1,5.1-5.6c1.8-1.5,3.6-2.5,5.6-3.2c1.9-0.7,3.7-1,5.5-1
	c2.8,0,5.7,0.6,8.7,1.7c3,1.1,39.9,24.3,39.9,24.3L195.6,53.2L195.6,53.2z M118,42.1c-0.5-1.2-1.6-2.7-3.2-4.5
	c-1.6-1.8-3.4-3.4-5.6-5c-2.2-1.6-4.5-2.9-7-4s-5-1.7-7.4-1.7c-1.4,0-2.7,0.2-3.8,0.5c-0.2,0-0.3,0.1-0.4,0.2
	c-0.9,0.4-1.6,0.9-2.2,1.5c-3.5,3.6-9.2,9.8-13.1,14.1h42.2L118,42.1L118,42.1z"/>
</svg>
