<svg id="Layer_1" data-name="Layer 1" xmlns="http://www.w3.org/2000/svg" viewBox="0 0 163.752 52.022"><defs><style>.cls-1{fill:#cc7a3e;}.cls-2{fill:#e89a57;}.cls-3{fill:#06253b;}</style></defs><path class="cls-1" d="M313.575,249.562c.392.3.283.728.284,1.117q.017,15.064.018,30.129c0,.344.123.739-.246,1l-18.523-21.5c-.894-1.037-1.781-2.081-2.68-3.113-.33-.378-.6-.619.171-.866C299.6,254.1,306.585,251.823,313.575,249.562Z" transform="translate(-174.789 -229.989)"/><path class="cls-1" d="M313.86,246.861l-24.616,8.028c0-2.945.01-5.719-.01-8.493a.941.941,0,0,1,.53-.862c3-1.949,6-3.9,9.164-5.96,0,1.851.021,3.564-.01,5.276-.013.7.143,1.014.869.641a1.09,1.09,0,0,1,.115-.034c1.4-.493,3.341-.6,4.057-1.589s.411-2.894.193-4.344c-.389-2.6.6-4.132,2.9-5.293,2.387-1.2,4.443-3,6.835-4.242Q313.873,238.425,313.86,246.861Z" transform="translate(-174.789 -229.989)"/><path class="cls-2" d="M313.575,249.562c.4-.4.77-.013,1.105.095,6.742,2.175,13.47,4.389,20.215,6.552.923.3.89.533.31,1.2q-10.312,11.948-20.6,23.917c-.2.233-.3,1.056-.974.478.369-.262.246-.657.246-1q0-15.065-.018-30.129C313.858,250.29,313.967,249.858,313.575,249.562Z" transform="translate(-174.789 -229.989)"/><path class="cls-2" d="M313.86,246.861q.012-8.436.025-16.872a42.209,42.209,0,0,1,4.894,3.036c1.374.841,2.688,1.781,4.06,2.624a1.357,1.357,0,0,1,.74,1.355c-.047,2.015.023,4.033-.036,6.048a1.079,1.079,0,0,0,.928,1.253c1.195.353,2.376.765,3.543,1.2.641.242.842.115.827-.583-.036-1.717-.012-3.435-.012-5.362,3.233,2.112,6.286,4.114,9.351,6.1.442.287.333.694.334,1.08.007,2.379-.041,4.76.026,7.138.027.962-.281.929-1.028.684Q325.7,250.688,313.86,246.861Z" transform="translate(-174.789 -229.989)"/><path class="cls-3" d="M180.32,243.63v12.254a4.339,4.339,0,0,0,1.226,3.151,4.394,4.394,0,0,0,6.162,0,4.859,4.859,0,0,0,1.226-3.536v-15.37h5.532V255.5a10.158,10.158,0,0,1-2.836,7.458,9.934,9.934,0,0,1-13.987-.018,9.652,9.652,0,0,1-2.854-7.055V243.63Zm1.261-8.473a3.046,3.046,0,1,1,5.217,2.136,3.046,3.046,0,0,1-5.217-2.136Z" transform="translate(-174.789 -229.989)"/><path class="cls-3" d="M197.546,248.847a8.756,8.756,0,0,1,8.753-8.753,8.249,8.249,0,0,1,6.337,2.643,9.622,9.622,0,0,1,2.451,6.81V252.1h2.171v5.532h-2.206a9.051,9.051,0,0,1-2.678,5.934,8.453,8.453,0,0,1-6.145,2.293,10.418,10.418,0,0,1-4.289-.945,8.244,8.244,0,0,1-3.343-2.591l3.85-3.64a4.7,4.7,0,0,0,3.712,1.645,3.432,3.432,0,0,0,2.363-.823,2.715,2.715,0,0,0,1-1.873h-3.047a8.712,8.712,0,0,1-6.337-2.538A8.406,8.406,0,0,1,197.546,248.847Zm5.532,0a3.094,3.094,0,0,0,.963,2.328,3.363,3.363,0,0,0,2.433.928h3.047v-3.082a3.393,3.393,0,0,0-.912-2.432,3.037,3.037,0,0,0-2.31-.963,3.226,3.226,0,0,0-3.221,3.221Z" transform="translate(-174.789 -229.989)"/><path class="cls-3" d="M216.558,257.635V252.1h2.626V240.129h5.531v3.4a12.25,12.25,0,0,1,8.053-3.4,8.191,8.191,0,0,1,6.25,2.591,9.322,9.322,0,0,1,2.433,6.652v.665q0,2.067,1.576,2.066h1.016v5.532h-1.016a5.377,5.377,0,0,1-4.377-2.066,5.979,5.979,0,0,1-4.761,2.066Zm17.331-5.532a2.025,2.025,0,0,0,1.47-.542,2.126,2.126,0,0,0,.561-1.594v-.49a3.846,3.846,0,0,0-1-2.784,3.741,3.741,0,0,0-2.818-1.032q-3.294,0-7.389,4.1V252.1Z" transform="translate(-174.789 -229.989)"/><path class="cls-3" d="M257.346,257.635h-14V252.1h14Z" transform="translate(-174.789 -229.989)"/><path class="cls-3" d="M256.646,252.1h15.581v-1.156a5,5,0,0,0-1.524-3.9,5.991,5.991,0,0,0-4.183-1.383h-7.668v-5.532H266.8a10.918,10.918,0,0,1,7.79,2.993,9.942,9.942,0,0,1,3.168,7.545l.035,1.436v5.532H256.646Z" transform="translate(-174.789 -229.989)"/><path class="cls-3" d="M183.815,273.661v5.586l-6.419.012a2.5,2.5,0,0,1-1.863-.679,2.541,2.541,0,0,1-.667-1.861,2.989,2.989,0,0,1,.3-1.363,3.5,3.5,0,0,1,.863-1.075l1.047.737a2.862,2.862,0,0,0-.673.809,1.878,1.878,0,0,0-.213.88,1.313,1.313,0,0,0,.345.954,1.286,1.286,0,0,0,.966.357h4.993v-4.357Zm-5.711-1.012a.732.732,0,0,1-.2-.521.713.713,0,0,1,.2-.516.717.717,0,0,1,1,0,.71.71,0,0,1,.2.516.728.728,0,0,1-.2.521.707.707,0,0,1-1,0Zm1.818,0a.727.727,0,0,1-.2-.521.709.709,0,0,1,.2-.516.717.717,0,0,1,1,0,.709.709,0,0,1,.2.516.727.727,0,0,1-.2.521.707.707,0,0,1-1,0Z" transform="translate(-174.789 -229.989)"/><path class="cls-3" d="M191.213,270.729v8.518h-6.132v-1.229h1.461v-5.667h1.323v5.667h2.025v-7.289Z" transform="translate(-174.789 -229.989)"/><path class="cls-3" d="M198.264,274.132v5.139a2.6,2.6,0,0,1-.656,1.884,2.466,2.466,0,0,1-1.806.7l-.207-1.241a1.291,1.291,0,0,0,1.03-.27,1.489,1.489,0,0,0,.316-1.074v-.219a4.387,4.387,0,0,1-1.277.195,3.289,3.289,0,0,1-1.593-.4,3.1,3.1,0,0,1-1.162-1.076,2.8,2.8,0,0,1,0-2.988,3.1,3.1,0,0,1,1.162-1.074,3.279,3.279,0,0,1,1.593-.4,4.356,4.356,0,0,1,1.282.212,5.017,5.017,0,0,1,1.249.581Zm-1.323,3.6v-2.884a3,3,0,0,0-1.243-.3,2.039,2.039,0,0,0-.977.235,1.744,1.744,0,0,0-.679.633,1.682,1.682,0,0,0,0,1.735,1.735,1.735,0,0,0,.679.632,2.029,2.029,0,0,0,.977.237A3.079,3.079,0,0,0,196.941,277.729Z" transform="translate(-174.789 -229.989)"/><path class="cls-3" d="M202.911,278.626q0,.621-.229.621h-2.693v-8.518h1.323v7.289h1.37Q202.912,278.018,202.911,278.626Z" transform="translate(-174.789 -229.989)"/><path class="cls-3" d="M210.676,278.626q0,.621-.231.621h-7.764q-.231,0-.231-.621t.231-.608h1.391a2.817,2.817,0,0,1-.517-1.656,2.92,2.92,0,0,1,.425-1.557,3,3,0,0,1,1.163-1.092,3.331,3.331,0,0,1,1.61-.4,5.334,5.334,0,0,1,2.369.632v4.07h1.323Q210.676,278.018,210.676,278.626Zm-5.436-1.2a1.758,1.758,0,0,0,.984.593H207.8v-3.289a3.545,3.545,0,0,0-1.035-.183,2.006,2.006,0,0,0-.973.235,1.718,1.718,0,0,0-.673.65,1.793,1.793,0,0,0-.241.92A1.643,1.643,0,0,0,205.24,277.425Zm.115-5.305a.726.726,0,0,1-.2-.521.711.711,0,0,1,.2-.516.718.718,0,0,1,1,0,.707.707,0,0,1,.2.516.722.722,0,0,1-.2.521.7.7,0,0,1-1,0Zm1.818,0a.726.726,0,0,1-.2-.521.711.711,0,0,1,.2-.516.72.72,0,0,1,1,0,.711.711,0,0,1,.2.516.726.726,0,0,1-.2.521.7.7,0,0,1-1,0Z" transform="translate(-174.789 -229.989)"/><path class="cls-3" d="M219.337,278.626c0,.414-.076.621-.23.621h-.081a2.554,2.554,0,0,1-1.771-.6,8.144,8.144,0,0,1-1.559.449,8.26,8.26,0,0,1-1.477.149,5.178,5.178,0,0,1-2.152-.472,2.224,2.224,0,0,1-1.461.472h-.161q-.229,0-.23-.621t.23-.608h.161a.769.769,0,0,0,.852-.747l.034-.3a14.513,14.513,0,0,1,.293-1.7,3.654,3.654,0,0,1,.736-1.466,1.843,1.843,0,0,1,1.513-.673,2.679,2.679,0,0,1,1.611.557,4.326,4.326,0,0,1,1.265,1.546,6.234,6.234,0,0,1,.633,2.207,1.181,1.181,0,0,0,1.127.576h.437C219.261,278.018,219.337,278.221,219.337,278.626Zm-5.108-.608a6.946,6.946,0,0,0,2.014-.334,5.321,5.321,0,0,0-.414-1.65,3.812,3.812,0,0,0-.8-1.218,1.362,1.362,0,0,0-.937-.454.8.8,0,0,0-.707.409,2.675,2.675,0,0,0-.363.936q-.1.529-.184,1.253l-.069.552-.035.172A3.5,3.5,0,0,0,214.229,278.018Z" transform="translate(-174.789 -229.989)"/><path class="cls-3" d="M221.316,270.729v8.518h-2.209q-.23,0-.23-.621t.23-.608h.886v-7.289Z" transform="translate(-174.789 -229.989)"/><path class="cls-3" d="M223.271,270.729H224.6v8.518h-1.324Z" transform="translate(-174.789 -229.989)"/><path class="cls-3" d="M231.876,274.132v5.139a2.6,2.6,0,0,1-.655,1.884,2.469,2.469,0,0,1-1.807.7l-.207-1.241a1.289,1.289,0,0,0,1.03-.27,1.489,1.489,0,0,0,.317-1.074v-.219a4.4,4.4,0,0,1-1.278.195,3.282,3.282,0,0,1-1.592-.4,3.1,3.1,0,0,1-1.163-1.076,2.8,2.8,0,0,1,0-2.988,3.1,3.1,0,0,1,1.163-1.074,3.272,3.272,0,0,1,1.592-.4,4.357,4.357,0,0,1,1.283.212,5.017,5.017,0,0,1,1.249.581Zm-1.322,3.6v-2.884a3.011,3.011,0,0,0-1.243-.3,2.04,2.04,0,0,0-.978.235,1.744,1.744,0,0,0-.679.633,1.682,1.682,0,0,0,0,1.735,1.735,1.735,0,0,0,.679.632,2.03,2.03,0,0,0,.978.237A3.086,3.086,0,0,0,230.554,277.729Z" transform="translate(-174.789 -229.989)"/><path class="cls-3" d="M245.2,273.661v5.586l-6.419.012a2.5,2.5,0,0,1-1.863-.679,2.541,2.541,0,0,1-.667-1.861,2.989,2.989,0,0,1,.3-1.363,3.5,3.5,0,0,1,.863-1.075l1.047.737a2.845,2.845,0,0,0-.673.809,1.878,1.878,0,0,0-.213.88,1.313,1.313,0,0,0,.345.954,1.286,1.286,0,0,0,.966.357h4.993v-4.357Zm-5.711-1.012a.732.732,0,0,1-.2-.521.713.713,0,0,1,.2-.516.717.717,0,0,1,1,0,.71.71,0,0,1,.2.516.728.728,0,0,1-.2.521.707.707,0,0,1-1,0Zm1.818,0a.728.728,0,0,1-.2-.521.71.71,0,0,1,.2-.516.717.717,0,0,1,1,0,.709.709,0,0,1,.2.516.727.727,0,0,1-.2.521.707.707,0,0,1-1,0Z" transform="translate(-174.789 -229.989)"/><path class="cls-3" d="M247.037,270.729h1.323v8.518h-1.323Z" transform="translate(-174.789 -229.989)"/><path class="cls-3" d="M248.878,280.615a1.289,1.289,0,0,0,1.03-.27,1.489,1.489,0,0,0,.317-1.074v-5.61h1.322v5.61a2.6,2.6,0,0,1-.655,1.884,2.469,2.469,0,0,1-1.807.7Z" transform="translate(-174.789 -229.989)"/><path class="cls-3" d="M256.193,278.626q0,.621-.229.621h-2.693v-8.518H254.6v7.289h1.369Q256.194,278.018,256.193,278.626Z" transform="translate(-174.789 -229.989)"/><path class="cls-3" d="M263.959,278.626q0,.621-.23.621h-7.765c-.153,0-.231-.207-.231-.621s.078-.608.231-.608h1.391a2.817,2.817,0,0,1-.517-1.656,2.912,2.912,0,0,1,.426-1.557,3,3,0,0,1,1.162-1.092,3.331,3.331,0,0,1,1.61-.4,5.334,5.334,0,0,1,2.369.632v4.07h1.324Q263.959,278.018,263.959,278.626Zm-5.436-1.2a1.761,1.761,0,0,0,.984.593h1.576v-3.289a3.539,3.539,0,0,0-1.035-.183,2.009,2.009,0,0,0-.973.235,1.718,1.718,0,0,0-.673.65,1.793,1.793,0,0,0-.241.92A1.643,1.643,0,0,0,258.523,277.425Zm.116-5.305a.722.722,0,0,1-.2-.521.707.707,0,0,1,.2-.516.718.718,0,0,1,1,0,.711.711,0,0,1,.2.516.726.726,0,0,1-.2.521.7.7,0,0,1-1,0Zm1.817,0a.726.726,0,0,1-.2-.521.711.711,0,0,1,.2-.516.72.72,0,0,1,1,0,.711.711,0,0,1,.2.516.726.726,0,0,1-.2.521.7.7,0,0,1-1,0Z" transform="translate(-174.789 -229.989)"/><path class="cls-3" d="M271.9,278.626q0,.621-.23.621h-2.014a6.094,6.094,0,0,1-2.357-.448,6.191,6.191,0,0,1-2.106.448h-1.46q-.231,0-.231-.621t.231-.608h1.46a3.383,3.383,0,0,0,.737-.081,4.938,4.938,0,0,1-1.507-2.437l1.115-1.92a7.172,7.172,0,0,1,1.979-.287,5.346,5.346,0,0,1,1.743.259,2.689,2.689,0,0,1,1.173.735,1.614,1.614,0,0,1,.42,1.1,2.2,2.2,0,0,1-.518,1.368,5.427,5.427,0,0,1-1.38,1.219,4.623,4.623,0,0,0,.7.046h2.014Q271.9,278.018,271.9,278.626Zm-5.614-2.241a3.523,3.523,0,0,0,1.127,1.057,5.875,5.875,0,0,0,1.508-.994,1.543,1.543,0,0,0,.609-1.028q0-.4-.529-.649a3.532,3.532,0,0,0-1.473-.249,5.052,5.052,0,0,0-1.875.357A4.221,4.221,0,0,0,266.282,276.385Z" transform="translate(-174.789 -229.989)"/><path class="cls-3" d="M275.393,278.626c0,.414-.078.621-.231.621h-3.5q-.23,0-.23-.621t.23-.608h.886v-7.289h1.323v7.289h1.288C275.315,278.018,275.393,278.221,275.393,278.626Z" transform="translate(-174.789 -229.989)"/><path class="cls-3" d="M277.371,270.729v8.518h-2.209q-.229,0-.23-.621t.23-.608h.886v-7.289Z" transform="translate(-174.789 -229.989)"/></svg>